<?xml version="1.0" standalone="no"?>
<!DOCTYPE svg PUBLIC "-//W3C//DTD SVG 20010904//EN"
 "http://www.w3.org/TR/2001/REC-SVG-20010904/DTD/svg10.dtd">
<svg version="1.0" xmlns="http://www.w3.org/2000/svg"
 width="260.000000pt" height="260.000000pt" viewBox="0 0 260.000000 260.000000"
 preserveAspectRatio="xMidYMid meet">
<metadata>
Created by potrace 1.11, written by Peter Selinger 2001-2013
</metadata>
<g transform="translate(0.000000,260.000000) scale(0.100000,-0.100000)"
fill="#000000" stroke="none">
<path d="M916 2573 c-3 -10 -21 -94 -41 -188 -19 -93 -38 -178 -41 -187 -4
-15 1 -18 34 -18 34 0 43 6 72 43 170 212 281 274 548 302 l62 7 0 -749 0
-749 -22 -44 c-30 -58 -73 -79 -176 -87 l-82 -6 0 -33 0 -34 435 0 435 0 0 35
c0 35 -1 35 -43 35 -57 0 -157 27 -180 48 -54 49 -52 16 -52 827 l0 750 85 -3
c133 -5 199 -19 275 -56 91 -46 164 -110 232 -207 54 -78 55 -79 98 -79 l43 0
-13 58 c-7 31 -28 123 -46 205 l-32 147 -793 0 c-746 0 -793 -1 -798 -17z
m208 -52 c3 -4 -21 -25 -54 -45 -32 -20 -83 -64 -113 -97 l-54 -61 18 82 c31
145 18 130 114 130 46 0 86 -4 89 -9z m1285 -23 c5 -18 15 -53 21 -78 6 -25
14 -54 17 -64 3 -12 -23 5 -68 44 -41 34 -101 75 -134 90 l-60 28 60 4 c158
11 152 11 164 -24z m-765 3 c31 -34 36 -131 36 -731 -1 -598 -7 -761 -31 -813
-16 -35 -56 -57 -105 -57 l-38 0 31 33 c17 17 35 47 42 66 8 24 11 250 11 777
0 717 1 744 18 744 11 0 26 -8 36 -19z"/>
<path d="M395 1829 c-27 -6 -77 -23 -111 -40 -304 -144 -376 -578 -134 -802
102 -95 162 -117 515 -186 83 -16 176 -39 208 -51 78 -29 153 -92 191 -160 29
-51 31 -62 31 -155 0 -89 -3 -106 -28 -157 -34 -69 -89 -120 -177 -162 -59
-28 -74 -31 -165 -31 -117 0 -172 16 -264 75 -135 87 -267 271 -337 468 l-18
53 -41 -3 -40 -3 -3 -318 -2 -317 39 0 c23 0 44 6 52 16 7 8 31 25 53 36 66
34 130 28 292 -27 220 -76 355 -74 521 6 332 159 419 610 168 864 -111 112
-172 136 -497 201 -256 50 -321 70 -394 119 -131 87 -142 279 -23 410 59 64
114 92 204 106 141 22 264 -22 388 -141 72 -68 185 -221 218 -292 11 -25 18
-28 58 -28 l47 0 -27 253 c-15 138 -28 254 -28 255 -2 7 -115 -6 -172 -19 -49
-10 -73 -9 -190 11 -161 26 -266 33 -334 19z m590 -217 c9 -57 15 -106 12
-108 -2 -2 -30 30 -62 71 -31 41 -75 90 -96 108 l-39 32 84 0 84 0 17 -103z
m-907 -303 c20 -112 78 -197 175 -260 78 -51 147 -72 367 -113 338 -64 462
-123 534 -257 25 -45 30 -67 34 -148 3 -81 1 -105 -17 -151 -12 -30 -32 -68
-46 -85 l-24 -29 20 64 c26 82 22 192 -9 263 -44 98 -149 179 -277 214 -27 7
-137 29 -243 48 -107 20 -219 44 -250 55 -193 68 -314 260 -294 465 5 46 6 48
13 20 4 -16 12 -55 17 -86z m70 -1027 c22 -32 47 -64 56 -71 25 -21 19 -28
-30 -34 -32 -3 -54 -13 -75 -33 l-29 -28 1 155 0 154 19 -42 c11 -24 37 -69
58 -101z"/>
</g>
</svg>
